<svg height="470pt" viewBox="0 -68 470.00735 470" width="470pt" xmlns="http://www.w3.org/2000/svg"><path d="m5.753906 334.003906h458.5c1.566406-.007812 3.058594-.648437 4.140625-1.777344 1.085938-1.128906 1.664063-2.648437 1.609375-4.210937v-297.613281c0-3.3125-2.4375-6.398438-5.75-6.398438h-37.25v-18.011718c-.066406-3.339844-2.800781-6.0039068-6.140625-5.98828175h-112.710937c-3.339844-.01562505-6.078125 2.64843775-6.148438 5.98828175v18.011718h-134v-18.011718c-.070312-3.339844-2.808594-6.0039068-6.148437-5.98828175h-112.710938c-3.339843-.01562505-6.074219 2.64843775-6.140625 5.98828175v18.011718h-37.25c-3.3125 0-5.74999975 3.085938-5.74999975 6.398438v297.613281c-.05468745 1.5625.52343775 3.082031 1.60937475 4.210937 1.082031 1.128907 2.578125 1.769532 4.140625 1.777344zm308.25-322h101v37h-101zm-259 0h101v37h-101zm-43 24h31v19.457032c0 3.316406 2.828125 5.542968 6.140625 5.542968h112.710938c3.3125 0 6.148437-2.226562 6.148437-5.542968v-19.457032h134v19.457032c0 3.316406 2.832032 5.542968 6.148438 5.542968h112.710937c3.3125 0 6.140625-2.226562 6.140625-5.542968v-19.457032h31v286h-446zm0 0"/><path d="m408.902344 202.003906h-132.597656c-3.316407 0-6 2.6875-6 6s2.683593 6 6 6h132.597656c3.316406 0 6-2.6875 6-6s-2.683594-6-6-6zm0 0"/><path d="m276.308594 156.003906h73.667968c3.3125 0 6-2.6875 6-6s-2.6875-6-6-6h-73.667968c-3.3125 0-6 2.6875-6 6s2.6875 6 6 6zm0 0"/><path d="m150.789062 112.8125c-20.480468 0-37.085937 16.605469-37.085937 37.089844 0 20.480468 16.601563 37.085937 37.085937 37.085937 20.484376 0 37.089844-16.601562 37.089844-37.085937-.023437-20.472656-16.613281-37.066406-37.089844-37.089844zm0 62.175781c-13.855468 0-25.085937-11.234375-25.085937-25.089843 0-13.855469 11.234375-25.085938 25.089844-25.085938s25.085937 11.234375 25.085937 25.089844c-.019531 13.851562-11.242187 25.070312-25.089844 25.085937zm0 0"/><path d="m150.671875 83.636719c-52.78125 0-95.570313 42.789062-95.570313 95.574219 0 52.78125 42.789063 95.570312 95.570313 95.570312 52.785156 0 95.574219-42.789062 95.574219-95.570312-.058594-52.761719-42.816406-95.515626-95.574219-95.574219zm-54.402344 158.765625c1.304688-24.261719 21.304688-43.292969 45.597657-43.398438h17.613281c24.296875.105469 44.296875 19.140625 45.601562 43.398438-31.261719 26.949218-77.546875 26.949218-108.808593 0zm119.320313-10.804688c-6.148438-26.046875-29.347656-44.484375-56.109375-44.59375h-17.613281c-26.761719.109375-49.960938 18.546875-56.113282 44.589844-27.652344-34.105469-24.195312-83.792969 7.910156-113.742188 32.105469-29.949218 81.910157-29.949218 114.015626 0 32.105468 29.949219 35.5625 79.636719 7.910156 113.742188zm0 0"/></svg>